<?xml version="1.0" encoding="UTF-8"?>
<svg id="Layer_2" data-name="Layer 2" xmlns="http://www.w3.org/2000/svg" viewBox="0 0 23.75 24.99">
  <defs>
    <style>
      .cls-1 {
        fill: #fff;
        stroke-width: 0px;
      }
    </style>
  </defs>
  <g id="Layer_1-2" data-name="Layer 1">
    <g>
      <path class="cls-1" d="m21.93,15.36c0,2.97,0,5.94,0,8.91,0,.12,0,.23,0,.35,0,.21-.09.34-.32.34-.16,0-.31.03-.47.03-1.42,0-2.84,0-4.26,0-.68,0-.71-.05-.71-.72,0-4.26,0-8.52,0-12.78,0-.39.12-.69.41-.95,1.59-1.49,3.16-2.99,4.74-4.49.08-.08.17-.15.26-.22.19-.14.29-.11.35.13.02.1.02.21.02.32,0,3.03,0,6.07,0,9.1h0Z"/>
      <path class="cls-1" d="m14.8,18.85c0,1.8,0,3.6,0,5.4,0,.12,0,.23,0,.35-.03.28-.13.38-.41.39-.35,0-.71,0-1.07,0-1.07,0-2.13,0-3.2,0-.26,0-.53-.03-.79-.04-.17,0-.28-.09-.31-.26-.02-.11-.03-.23-.03-.34,0-3.61,0-7.22-.01-10.83,0-.14,0-.28.03-.42.04-.2.19-.25.35-.13.11.08.2.19.3.29.63.64,1.26,1.28,1.9,1.91.23.23.25.23.47,0,.71-.72,1.42-1.44,2.13-2.17.05-.05.09-.11.14-.14.1-.05.23-.14.3-.11.09.04.15.18.17.29.03.2.02.41.02.62,0,1.73,0,3.45,0,5.18h0Z"/>
      <path class="cls-1" d="m7.51,18.42c0,2.01,0,4.03,0,6.04,0,.39-.09.49-.48.49-1.63,0-3.25,0-4.88,0-.36,0-.41-.06-.42-.42-.01-2.01-.02-4.03-.03-6.04,0-.39,0-.79.04-1.18.02-.16.1-.34.22-.45,1.08-1.04,2.18-2.06,3.27-3.09.56-.53,1.11-1.06,1.66-1.58.07-.06.13-.13.21-.18.21-.13.38-.04.4.2.01.11,0,.23,0,.34,0,1.96,0,3.91,0,5.87h0Z"/>
      <path class="cls-1" d="m23.54,0c.21,0,.25.04.19.28-.17.8-.35,1.61-.52,2.41-.09.42-.16.84-.24,1.26-.04.23-.21.31-.39.15-.23-.2-.45-.42-.65-.64-.14-.16-.23-.15-.37,0-1.08,1.08-2.18,2.16-3.27,3.24-2.02,2-4.03,4.01-6.04,6.02-.06.06-.12.13-.19.2-.23.25-.32.25-.57,0-1.18-1.17-2.35-2.33-3.53-3.5-.3-.3-.31-.3-.6,0-1.97,1.96-3.94,3.92-5.9,5.88-.17.17-.3.17-.46.01-.32-.31-.63-.63-.95-.93-.12-.12-.03-.18.04-.26.99-.98,1.98-1.96,2.96-2.94,1.44-1.43,2.87-2.86,4.3-4.29.29-.29.33-.29.63.01,1.18,1.18,2.36,2.35,3.54,3.52.25.25.26.25.5,0,2.7-2.69,5.4-5.37,8.09-8.06.06-.06.12-.13.19-.19.13-.12.11-.22-.01-.33-.22-.2-.43-.41-.64-.62-.21-.22-.14-.38.15-.45.77-.19,1.53-.39,2.29-.58.21-.05.44-.05.66-.08.24-.03.49-.07.76-.11Z"/>
    </g>
  </g>
</svg>