<?xml version="1.0" encoding="UTF-8"?>
<svg id="Layer_2" data-name="Layer 2" xmlns="http://www.w3.org/2000/svg" viewBox="0 0 25.26 25.12">
  <defs>
    <style>
      .cls-1 {
        fill: #fff;
        stroke-width: 0px;
      }
    </style>
  </defs>
  <g id="Layer_1-2" data-name="Layer 1">
    <g>
      <path class="cls-1" d="m12.61,13.92c1.42,0,2.84,0,4.26,0,.33,0,.33,0,.33.32,0,.79,0,1.58,0,2.36,0,.2-.07.27-.27.27-2.88,0-5.76,0-8.64,0-.17,0-.27-.06-.27-.23,0-.84,0-1.67-.01-2.51,0-.22.15-.21.3-.21,1.43,0,2.85,0,4.28,0Z"/>
      <path class="cls-1" d="m12.63,8.26c1.42,0,2.84,0,4.26,0,.24,0,.33.07.32.32-.01.78-.01,1.56,0,2.34,0,.22-.07.3-.3.3-2.87,0-5.74,0-8.61,0-.2,0-.27-.09-.27-.28,0-.8,0-1.61,0-2.41,0-.24.12-.26.3-.26,1.44,0,2.87,0,4.31,0Z"/>
      <path class="cls-1" d="m4.35,16.99c-.1-.08-.14-.1-.16-.13-1.36-1.36-2.71-2.72-4.07-4.08-.17-.17-.15-.28,0-.44,1.15-1.13,2.29-2.27,3.42-3.41.17-.17.33-.36.51-.53.08-.07.19-.11.28-.16.03.1.07.2.07.29,0,1.16,0,2.32,0,3.48,0,1.49,0,2.99,0,4.48,0,.14-.03.28-.05.48Z"/>
      <path class="cls-1" d="m17.02,20.78c-.15.16-.29.34-.45.49-1.24,1.23-2.49,2.46-3.73,3.69-.21.2-.24.2-.45,0-1.32-1.31-2.63-2.62-3.95-3.93-.08-.08-.14-.18-.26-.32h8.79l.04.07Z"/>
      <path class="cls-1" d="m8.21,4.36c.08-.11.13-.18.18-.24,1.15-1.16,2.31-2.32,3.46-3.48.18-.18.38-.34.55-.52.16-.17.29-.14.44,0,.24.24.49.47.74.71,1.08,1.08,2.15,2.15,3.22,3.23.07.07.13.17.23.3h-8.81Z"/>
      <path class="cls-1" d="m20.89,8.19c.11.08.18.12.24.18,1.3,1.29,2.6,2.58,3.89,3.88.31.31.31.32,0,.63-1.19,1.19-2.38,2.38-3.58,3.57-.13.13-.25.28-.38.41-.11.11-.19.08-.21-.07-.01-.11,0-.23,0-.34,0-2.26,0-4.52,0-6.78,0-.4,0-.79,0-1.19,0-.08.03-.17.05-.3Z"/>
    </g>
  </g>
</svg>